<svg width="39" height="24" viewBox="0 0 39 24" fill="none" xmlns="http://www.w3.org/2000/svg">
<path d="M2.10426 14.5594C0.841704 16.2534 0.175355 21.2649 0 23.5588C0.116903 23.7059 0.490994 24 1.05213 24H19.4644C25.4265 23.8529 37.6312 23.2412 38.7534 21.9707C40.1563 20.3826 35.2463 10.3243 32.2653 7.14805C29.2843 3.97177 24.3743 -0.086816 18.4999 0.00141404C12.6256 0.0896441 3.68245 12.4419 2.10426 14.5594Z" fill="#758082"/>
<mask id="mask0_12:1212" style="mask-type:alpha" maskUnits="userSpaceOnUse" x="0" y="0" width="39" height="24">
<path d="M2.10426 14.5594C0.841704 16.2534 0.175355 21.2649 0 23.5588C0.116903 23.7059 0.490994 24 1.05213 24H19.4644C25.4265 23.8529 37.6312 23.2412 38.7534 21.9707C40.1563 20.3826 35.2463 10.3243 32.2653 7.14805C29.2843 3.97177 24.3743 -0.086816 18.4999 0.00141404C12.6256 0.0896441 3.68245 12.4419 2.10426 14.5594Z" fill="#758082"/>
</mask>
<g mask="url(#mask0_12:1212)">
<path d="M2.71784 15.0006C1.45529 16.4122 1.13965 18.5886 1.13965 19.5003C1.13965 19.8532 1.33254 20.5767 2.1041 20.6473C3.06855 20.7355 5.78655 18.7062 8.94294 18.1768C12.0993 17.6475 23.322 12.5301 24.7249 10.5891C26.1277 8.648 22.1822 4.94233 21.5685 3.35419C20.9548 1.76605 20.6917 1.58959 18.0614 1.23667C15.4311 0.883751 7.89081 7.94216 7.36475 8.82446C6.83868 9.70676 4.29604 13.236 2.71784 15.0006Z" fill="#9FA9AB"/>
<path d="M24.988 6.26576C24.1739 4.94661 22.2992 1.9719 20.0781 -0.527954C21.5393 -0.527954 25.4439 1.76603 29.3719 7.41275C33.2998 13.0595 34.2233 19.0591 34.1941 21.3531L13.853 24.2647L0.876688 24C-0.263127 24 7.62786 22.3236 16.2202 20.2943C23.2344 16.2358 30.161 14.6476 24.988 6.26576Z" fill="#566165"/>
<path d="M24.8128 2.38357C23.1294 0.618972 20.8381 0.119001 19.9028 0.0895911L22.3578 -1.14563L31.1256 3.97171L40.244 13.1476L39.3672 24.0882L34.6327 22.2353C34.165 21.0589 33.1246 18.0532 32.7038 15.4416C32.1777 12.1771 26.917 4.58932 24.8128 2.38357Z" fill="#3F4A4C"/>
<path d="M17.3599 20.4708C21.1379 18.8414 26.4784 13.8535 26.8291 11.4713C37.9641 22.0589 37.2627 22.4118 34.1063 23.1177C31.5812 23.6824 14.2912 24.3235 6.75098 24.8823C8.38762 24.2353 13.6775 22.0589 17.3599 20.4708Z" fill="#3F4A4C"/>
</g>
</svg>
