<svg width="112" height="114" viewBox="0 0 112 114" fill="none" xmlns="http://www.w3.org/2000/svg">
<path d="M49.8019 37.9923C58.5544 37.004 61.9289 37.2737 67.2379 41.2757C68.6198 46.5167 68.8647 51.9933 67.9407 57.9704C60.1903 56.7233 57.0278 58.6642 49.1677 60.9823C57.5741 60.6938 60.8339 59.408 66.9467 62.8835C64.7493 71.7516 60.1921 81.7649 53.1846 93.6753C43.8143 83.3517 36.7111 71.784 33.7658 63.5341C37.7002 60.7124 40.6898 60.7849 44.3305 61.1751C41.1382 58.5852 38.6689 59.2495 33.4335 60.059C31.3164 51.2701 31.9303 45.2958 35.1242 36.833C39.6373 35.2564 43.3897 37.3739 46.3966 37.6435C44.3371 35.7849 40.8639 33.0248 36.2928 33.9365C39.0346 27.5382 46.0341 20.9181 50.5756 13.6401C58.7474 21.5271 62.1573 28.2643 65.3961 35.9083C61.134 33.9874 58.1817 34.9321 49.8019 37.9923Z" fill="#7C8E0E"/>
<path fill-rule="evenodd" clip-rule="evenodd" d="M51.5557 37.3558C52.0434 31.9651 52.649 26.104 53.3188 19.6212L53.3193 19.6167C53.4165 18.6758 53.515 17.7219 53.6148 16.7544C52.6797 15.7339 51.6702 14.6977 50.5752 13.6408C49.6174 15.1757 48.5503 16.6813 47.4369 18.1618C47.3881 18.6334 47.3395 19.1021 47.2912 19.5678L47.2903 19.5765C46.6405 25.8477 46.046 31.5845 45.5634 36.9182C45.8625 37.1683 46.1403 37.4132 46.3962 37.6442C46.1075 37.6183 45.8118 37.5754 45.5093 37.5203C43.72 57.5412 43.5568 71.89 48.0641 87.6408C49.6788 89.6768 51.39 91.6993 53.1843 93.6761C53.8664 92.5167 54.5252 91.3754 55.161 90.2513C51.8125 80.3273 50.4661 71.2843 50.3461 60.9351C49.9645 60.953 49.5719 60.9692 49.1673 60.9831C49.5712 60.864 49.9626 60.7459 50.3429 60.6291C50.2798 53.8045 50.744 46.4055 51.5148 37.8096C50.967 37.8644 50.3967 37.9258 49.8015 37.993C50.4144 37.7692 50.9982 37.5567 51.5557 37.3558Z" fill="#5B6A00"/>
<path d="M74.3101 51.6786C80.6044 54.6986 82.7572 56.3 84.6385 61.2221C83.3609 65.3236 81.2204 69.1049 78.0842 72.7303C73.4038 68.6308 70.463 68.6034 64.2084 66.8522C69.9757 70.1964 72.7062 70.7048 75.3489 75.6116C70.1408 80.6428 62.8658 85.4499 53.1468 90.4999C51.1984 79.6227 51.2962 68.8642 52.7903 62.0838C56.6203 61.8446 58.5976 63.1515 60.8786 64.9458C59.8246 61.8629 57.8865 61.2698 54.0297 59.61C56.3068 52.8163 59.2334 49.0622 64.9402 44.7227C68.6349 45.5632 70.2638 48.5647 72.1699 50.0112C71.5689 47.8962 70.3979 44.5807 66.9441 43.2692C71.4784 40.1259 78.9656 38.6256 85.0788 35.649C87.2477 44.3853 86.7023 50.3452 85.6605 56.8421C83.6064 53.7582 81.226 53.1502 74.3101 51.6786Z" fill="#97AB1E"/>
<path fill-rule="evenodd" clip-rule="evenodd" d="M75.8881 52.0168C78.4766 48.6127 81.3409 44.943 84.5085 40.8845L84.5132 40.8784C84.9493 40.3197 85.391 39.7537 85.8386 39.18C85.6347 38.0515 85.3833 36.8772 85.0781 35.648C83.7199 36.3093 82.2939 36.8978 80.8475 37.4476C80.6544 37.6948 80.4623 37.9408 80.2712 38.1854C77.2185 42.0941 74.4234 45.673 71.8691 49.0316C71.9843 49.3763 72.0827 49.7057 72.1692 50.0102C71.9556 49.8481 71.7455 49.6665 71.5356 49.4706C67.3324 55.0118 63.7902 59.9599 60.8326 64.8154C60.8479 64.8581 60.863 64.9012 60.8779 64.9448C60.8499 64.9228 60.8219 64.9008 60.794 64.8789C57.0426 71.0473 54.2345 77.0699 52.2127 83.9737C52.4444 86.1229 52.7538 88.3085 53.1461 90.4989C54.143 89.9809 55.1141 89.4655 56.06 88.9521C57.9847 80.9391 60.8743 74.3381 65.1266 67.3753C64.829 67.2083 64.5229 67.034 64.2077 66.8512C64.5727 66.9534 64.9264 67.0497 65.2699 67.1413C68.0962 62.5408 71.5179 57.774 75.6493 52.3312C75.2246 52.1199 74.7785 51.9027 74.3094 51.6776C74.8641 51.7957 75.3896 51.9081 75.8881 52.0168Z" fill="#5B6A00"/>
</svg>
