<svg width="83" height="82" viewBox="0 0 83 82" fill="none" xmlns="http://www.w3.org/2000/svg">
<path d="M28.8341 30.5086C23.2674 37.4169 21.6746 40.4319 22.2104 47.107C25.9205 51.1121 30.4449 54.2777 36.0261 56.7197C39.1508 49.4562 42.5089 47.8154 48.7244 42.3839C43.9396 49.3759 41.086 51.4532 40.7403 58.5275C49.4671 61.4479 60.4421 62.9802 74.3533 63.4535C70.6353 49.9115 64.6353 37.6253 59.211 30.666C54.6873 32.4876 53.1346 35.0688 51.5003 38.3751C51.022 34.2622 52.9203 32.5213 56.4357 28.5069C50.106 21.9609 44.6947 19.2567 35.7743 17.4025C31.9966 20.3885 31.7709 24.7225 30.3764 27.4248C29.9082 24.67 29.4369 20.2264 32.6805 16.832C25.7596 15.7082 16.351 18.0849 7.7103 18.0163C10.0036 29.2235 13.8908 35.761 18.6413 42.6425C19.3095 37.9813 21.7071 35.9812 28.8341 30.5086Z" fill="#97AB1E"/>
<path fill-rule="evenodd" clip-rule="evenodd" d="M26.4928 32.3185C21.7397 29.8748 16.5345 27.2771 10.7825 24.4063C10.2179 24.1246 9.64813 23.8402 9.07297 23.5531C8.5715 21.8349 8.11586 19.9982 7.71011 18.0154C10.1412 18.0347 12.6331 17.8604 15.1133 17.625C20.5131 20.3172 25.4818 22.7948 30.088 25.1607C30.1489 25.9884 30.2626 26.7558 30.3762 27.4239C30.6482 26.8968 30.8757 26.3077 31.0938 25.6785C38.7807 29.6457 45.4486 33.316 51.4272 37.1842C51.4273 37.5595 51.4513 37.9545 51.5001 38.3742C51.6447 38.0817 51.7886 37.7949 51.9341 37.5138C59.1344 42.2171 65.3354 47.2319 71.1239 53.44C72.3163 56.6519 73.4084 60.0117 74.3531 63.4526C72.5368 63.3908 70.7706 63.311 69.0529 63.2124C62.6569 55.4363 55.9173 49.6495 47.4802 44.1578C47.879 43.6012 48.2938 43.012 48.7242 42.383C48.1268 42.9051 47.5558 43.3921 47.0089 43.8525C41.3 40.1713 34.8143 36.609 27.1415 32.6525C27.6594 31.9778 28.2227 31.2662 28.8339 30.5077C27.9887 31.1567 27.21 31.7569 26.4928 32.3185Z" fill="#5B6A00"/>
</svg>
